<svg width="74" height="44" viewBox="0 0 74 44" fill="none" xmlns="http://www.w3.org/2000/svg">
<g clip-path="url(#clip0_1057_74318)">
<path d="M54.4973 7.1131C54.5009 7.0853 54.5009 7.0572 54.4973 7.0294C54.5007 7.00675 54.5007 6.98365 54.4973 6.96095L54.238 5.00585C54.2006 4.77194 54.1006 4.55333 53.9491 4.37444L53.9047 4.32119L53.8232 4.2375L49.3346 0.26645L49.4605 0.395786C49.3575 0.269197 49.2282 0.167942 49.082 0.0994815C48.9359 0.0310202 48.7767 -0.00290835 48.6161 0.000198709H47.2532C47.0316 -0.00431106 46.815 0.068057 46.6384 0.205601C46.453 0.0688855 46.2297 -0.00311239 46.0014 0.000198709H44.6385C44.4598 -0.00277982 44.2835 0.0427824 44.1274 0.132286C43.9713 0.221788 43.841 0.352055 43.7497 0.50989C43.6089 0.735325 43.556 1.00694 43.6015 1.27063L43.7719 2.50302C43.659 2.43731 43.5313 2.40321 43.4015 2.40413H36.8019C36.5651 2.40566 36.3338 2.47694 36.1353 2.60952C35.9433 2.73293 35.7892 2.90965 35.6909 3.11922L35.1798 2.67038C34.9786 2.47923 34.7131 2.37562 34.4391 2.38131H24.0841C23.8464 2.38576 23.6141 2.45393 23.41 2.5791C23.1309 2.74691 22.9263 3.01976 22.8397 3.33983L19.551 14.6368C19.4895 14.8229 19.4835 15.0237 19.5336 15.2134C19.5838 15.403 19.6878 15.5731 19.8325 15.7018C19.8701 15.7346 19.9097 15.7652 19.951 15.7931C19.951 15.7931 19.8843 15.7474 19.8473 15.7094L24.3359 19.6881C24.5258 19.8677 24.7741 19.968 25.0321 19.9695H35.4687C35.707 19.9632 35.9395 19.8924 36.1427 19.7642C36.2576 19.6996 36.3604 19.6146 36.4464 19.5131L36.4834 19.4599L36.5427 19.3838L36.5871 19.3001L37.076 19.7337C37.2631 19.9061 37.506 20.001 37.7574 20H48.2161C48.4542 19.9918 48.6863 19.9212 48.8901 19.7946C49.0025 19.7261 49.1047 19.6416 49.1939 19.5436L49.2308 19.4903L49.2901 19.4142C49.3216 19.3661 49.3489 19.3152 49.3716 19.2621C49.3958 19.216 49.4156 19.1675 49.4308 19.1175L52.4307 8.80195V8.71065C52.4344 8.67525 52.4344 8.63955 52.4307 8.60415V8.5357C52.4343 8.513 52.4343 8.4899 52.4307 8.4672C52.434 8.4191 52.434 8.3708 52.4307 8.32265H53.3936C53.4774 8.33055 53.5617 8.33055 53.6454 8.32265H53.7121C53.7663 8.30605 53.8185 8.28305 53.8677 8.2542H53.9417L54.075 8.1477L54.1343 8.10205L54.238 7.9651V7.9195L54.3121 7.79015C54.3079 7.765 54.3079 7.73925 54.3121 7.7141C54.3081 7.70175 54.3081 7.6884 54.3121 7.67605C54.3278 7.63145 54.3402 7.58565 54.3491 7.5391C54.3457 7.5241 54.3457 7.50845 54.3491 7.49345C54.3455 7.4708 54.3455 7.44765 54.3491 7.425C54.3491 7.425 54.4973 7.1283 54.4973 7.1131Z" fill="black"/>
<path d="M34.7427 3.24869C34.782 3.28521 34.8095 3.33323 34.8214 3.38628C34.8333 3.43933 34.8291 3.49485 34.8094 3.54537L31.5281 14.8347C31.4868 14.958 31.4022 15.061 31.2911 15.1238C31.2006 15.186 31.0959 15.2227 30.9873 15.2303H20.5583C20.4692 15.2259 20.3848 15.188 20.3213 15.1238C20.2834 15.0879 20.2569 15.0412 20.245 14.9897C20.2331 14.9382 20.2365 14.8843 20.2546 14.8347L23.5433 3.54537C23.5812 3.42056 23.6631 3.31476 23.7729 3.24869C23.8649 3.191 23.9691 3.15706 24.0766 3.14979H34.5057C34.594 3.15066 34.6788 3.18602 34.7427 3.24869ZM29.2985 12.5601L31.2614 5.81997H25.7654L23.81 12.5601H29.2985ZM44.6977 3.36279C44.7333 3.40526 44.7778 3.43894 44.8278 3.46133C44.8778 3.48372 44.9321 3.49425 44.9866 3.49212H46.3421C46.3937 3.49264 46.4445 3.47964 46.49 3.45435C46.5353 3.42906 46.5736 3.39231 46.6013 3.34758C46.6254 3.31264 46.6424 3.27308 46.6513 3.23126C46.6602 3.18945 46.6608 3.14622 46.6531 3.10415L46.3865 1.0958C46.3611 1.00285 46.3155 0.917016 46.2532 0.844751C46.2176 0.802281 46.1732 0.768601 46.1231 0.746211C46.0731 0.723821 46.0188 0.713301 45.9643 0.715426H44.6088C44.5572 0.714911 44.5063 0.727911 44.461 0.753201C44.4156 0.778491 44.3773 0.815236 44.3496 0.859971C44.2977 0.966471 44.2755 1.03494 44.2977 1.0958L44.5718 3.10415C44.5859 3.20194 44.63 3.29255 44.6977 3.36279ZM49.0012 1.08058C48.9758 0.987626 48.9302 0.901796 48.8679 0.829536C48.8338 0.787221 48.7906 0.753551 48.7418 0.731121C48.693 0.708696 48.6398 0.698116 48.5864 0.700211H47.2235C47.1727 0.698726 47.1225 0.711376 47.0782 0.736821C47.0339 0.762266 46.9971 0.799566 46.9717 0.844751C46.9224 0.912241 46.9011 0.997016 46.9124 1.08058L47.1865 3.08893C47.2037 3.18569 47.2473 3.27541 47.3124 3.34758C47.3486 3.38922 47.3932 3.42233 47.4431 3.44465C47.4929 3.46697 47.5469 3.47797 47.6012 3.4769H48.9642C49.0148 3.47759 49.0647 3.4646 49.1089 3.43923C49.1531 3.41386 49.1901 3.37702 49.216 3.33237C49.2418 3.29833 49.2598 3.25879 49.2688 3.21667C49.2777 3.17455 49.2774 3.13091 49.2678 3.08893L49.0012 1.08058ZM43.5052 4.12353L43.3718 3.13457H36.8019C36.6987 3.14041 36.5989 3.17457 36.513 3.23347C36.4584 3.26402 36.4109 3.30637 36.3738 3.35759C36.3368 3.40882 36.311 3.46769 36.2982 3.53016L35.7501 5.41677C35.7282 5.46392 35.7207 5.51682 35.7286 5.56842C35.7366 5.62002 35.7595 5.66792 35.7945 5.70587C35.8569 5.76617 35.9385 5.80132 36.0241 5.80477H44.0089L42.046 12.5449H34.0835C33.9808 12.5473 33.8808 12.5789 33.7946 12.6362C33.6899 12.7045 33.6134 12.8102 33.5798 12.9329L33.0243 14.8195C33.0062 14.8679 33.0014 14.9205 33.0105 14.9715C33.0197 15.0226 33.0424 15.07 33.0761 15.1086C33.1366 15.1729 33.2188 15.211 33.3057 15.2151H43.7644C43.8726 15.2055 43.9769 15.169 44.0681 15.1086C44.1775 15.0455 44.2595 14.9422 44.2977 14.8195L47.305 4.5039H43.92C43.8663 4.50499 43.8129 4.49475 43.7633 4.47381C43.7136 4.45288 43.6686 4.42168 43.6311 4.38218C43.5699 4.31319 43.5266 4.22947 43.5052 4.13875V4.12353Z" fill="white"/>
</g>
<g clip-path="url(#clip1_1057_74318)">
<path d="M7.45324 43.3517C6.46774 43.3517 5.57349 43.1748 4.77049 42.8211C3.96749 42.4674 3.27399 41.99 2.68999 41.3887C2.11816 40.7757 1.67407 40.0919 1.35774 39.3373C1.05357 38.571 0.901489 37.7811 0.901489 36.9677C0.901489 36.1306 1.06574 35.3348 1.39424 34.5803C1.72274 33.814 2.17899 33.1361 2.76299 32.5466C3.35916 31.9571 4.05874 31.4914 4.86174 31.1495C5.67691 30.7959 6.56507 30.619 7.52624 30.619C8.51174 30.619 9.40599 30.8018 10.209 31.1672C11.012 31.5327 11.6994 32.022 12.2712 32.635C12.8431 33.2481 13.2811 33.9378 13.5852 34.7041C13.9016 35.4586 14.0597 36.2367 14.0597 37.0384C14.0597 37.8637 13.8955 38.6535 13.567 39.4081C13.2507 40.1626 12.7944 40.8405 12.1982 41.4418C11.6142 42.0312 10.9207 42.4969 10.1177 42.8388C9.31474 43.1807 8.42657 43.3517 7.45324 43.3517ZM7.48974 40.2923C8.00074 40.2923 8.44482 40.198 8.82199 40.0093C9.19916 39.8207 9.50332 39.5672 9.73449 39.2489C9.97782 38.9306 10.1542 38.5769 10.2637 38.1879C10.3854 37.787 10.4462 37.3803 10.4462 36.9677C10.4462 36.5432 10.3854 36.1365 10.2637 35.7474C10.1421 35.3466 9.95957 34.9929 9.71624 34.6864C9.47291 34.3799 9.16266 34.1382 8.78549 33.9613C8.40832 33.7727 7.97032 33.6784 7.47149 33.6784C6.96049 33.6784 6.51641 33.7727 6.13924 33.9613C5.77424 34.15 5.47007 34.4034 5.22674 34.7218C4.98341 35.0401 4.80091 35.3997 4.67924 35.8005C4.56974 36.1895 4.51499 36.5904 4.51499 37.003C4.51499 37.4274 4.57582 37.8342 4.69749 38.2232C4.81916 38.6123 5.00166 38.966 5.24499 39.2843C5.48832 39.5908 5.79249 39.8384 6.15749 40.027C6.53466 40.2039 6.97874 40.2923 7.48974 40.2923ZM6.02974 37.958H9.35124L14.3882 43.2632H11.0667L6.02974 37.958ZM15.2396 40.0801V33.9613H18.7071V39.3197C18.7071 39.7205 18.7984 40.0388 18.9809 40.2746C19.1755 40.4986 19.4371 40.6106 19.7656 40.6106C19.9481 40.6106 20.1306 40.587 20.3131 40.5399C20.4956 40.4927 20.6781 40.3984 20.8606 40.2569C21.0553 40.1154 21.2439 39.915 21.4264 39.6557V33.9613H24.8939V39.5495C24.8939 39.8679 24.9425 40.0919 25.0399 40.2215C25.1372 40.3394 25.3075 40.4102 25.5508 40.4338V43.2632C25.2467 43.3222 24.9729 43.3634 24.7296 43.387C24.4863 43.4224 24.2733 43.4401 24.0909 43.4401C23.5069 43.4401 23.0445 43.334 22.7039 43.1218C22.3632 42.9095 22.1442 42.5853 22.0469 42.1491L21.9739 41.8131C21.5237 42.3908 20.9823 42.8093 20.3496 43.0687C19.7291 43.3163 19.0234 43.4401 18.2326 43.4401C17.2714 43.4401 16.5293 43.1512 16.0061 42.5735C15.4951 41.9959 15.2396 41.1647 15.2396 40.0801ZM26.9688 43.2632V33.9613H30.4363V43.2632H26.9688ZM26.9688 33.1832V30.3538H30.4363V33.1832H26.9688ZM31.7162 41.2826L36.0962 36.2603H31.9899V33.9613H39.7097V35.942L35.3479 40.9643H39.8739V43.2632H31.7162V41.2826ZM44.9098 30.7074H48.1765L49.3628 34.5803L50.5673 30.7074H53.834L51.644 36.7024L52.5748 39.2666L55.367 30.7074H59.236L54.345 43.2632H51.2608L49.3628 38.7714L47.483 43.2632H44.3988L39.5078 30.7074H43.3585L46.169 39.2666L47.0633 36.7024L44.9098 30.7074ZM59.8865 43.2632V33.9613H63.354V43.2632H59.8865ZM59.8865 33.1832V30.3538H63.354V33.1832H59.8865ZM64.6339 41.2826L69.0139 36.2603H64.9077V33.9613H72.6274V35.942L68.2657 40.9643H72.7917V43.2632H64.6339V41.2826Z" fill="black"/>
</g>
<defs>
<clipPath id="clip0_1057_74318">
<rect width="35" height="20" fill="white" transform="translate(19.5)"/>
</clipPath>
<clipPath id="clip1_1057_74318">
<rect width="73" height="14" fill="white" transform="translate(0.5 30)"/>
</clipPath>
</defs>
</svg>
