<svg width="661" height="301" viewBox="0 0 661 301" fill="none" xmlns="http://www.w3.org/2000/svg">
<path d="M56.32 203.8C48 203.8 40.4267 202.2 33.6 199C26.88 195.693 21.0667 191.32 16.16 185.88C11.36 180.44 7.62663 174.307 4.95996 167.48C2.29329 160.547 0.959961 153.453 0.959961 146.2C0.959961 138.627 2.34663 131.427 5.11996 124.6C7.99996 117.667 11.8933 111.533 16.8 106.2C21.8133 100.76 27.68 96.4933 34.4 93.4C41.2267 90.2 48.6933 88.6 56.8 88.6C65.0133 88.6 72.48 90.2533 79.2 93.56C86.0267 96.8667 91.84 101.293 96.64 106.84C101.44 112.387 105.173 118.573 107.84 125.4C110.507 132.227 111.84 139.267 111.84 146.52C111.84 153.987 110.453 161.187 107.68 168.12C104.907 174.947 101.013 181.08 96 186.52C91.0933 191.853 85.2267 196.067 78.4 199.16C71.68 202.253 64.32 203.8 56.32 203.8ZM56.48 184.28C61.8133 184.28 66.56 183.213 70.72 181.08C74.88 178.84 78.3467 175.907 81.12 172.28C83.8933 168.547 85.9733 164.44 87.36 159.96C88.8533 155.373 89.6 150.787 89.6 146.2C89.6 141.293 88.8 136.547 87.2 131.96C85.7067 127.373 83.52 123.32 80.64 119.8C77.8667 116.28 74.4 113.453 70.24 111.32C66.1867 109.187 61.6 108.12 56.48 108.12C51.04 108.12 46.24 109.24 42.08 111.48C38.0267 113.613 34.6133 116.547 31.84 120.28C29.0667 123.907 26.9333 127.96 25.44 132.44C24.0533 136.92 23.36 141.507 23.36 146.2C23.36 151.107 24.1067 155.853 25.6 160.44C27.0933 165.027 29.2267 169.08 32 172.6C34.88 176.12 38.3467 178.947 42.4 181.08C46.56 183.213 51.2533 184.28 56.48 184.28ZM54.24 160.92H75.04L112.48 203H91.68L54.24 160.92ZM125.241 171.64V119.16H146.681V167C146.681 173.4 147.855 178.253 150.201 181.56C152.548 184.76 156.015 186.36 160.601 186.36C163.375 186.36 166.095 185.827 168.761 184.76C171.535 183.587 174.041 181.88 176.281 179.64C178.628 177.4 180.601 174.573 182.201 171.16V119.16H203.641V179C203.641 181.24 204.015 182.84 204.761 183.8C205.615 184.76 206.948 185.347 208.761 185.56V203C206.628 203.32 204.815 203.533 203.321 203.64C201.935 203.853 200.655 203.96 199.481 203.96C195.641 203.96 192.495 203.107 190.041 201.4C187.695 199.587 186.308 197.133 185.881 194.04L185.401 187.32C181.668 192.973 176.868 197.293 171.001 200.28C165.135 203.16 158.681 204.6 151.641 204.6C143.001 204.6 136.441 201.827 131.961 196.28C127.481 190.627 125.241 182.413 125.241 171.64ZM224.448 203V119.16H245.888V203H224.448ZM224.448 107.48V86.2H245.888V107.48H224.448ZM259.129 189.88L305.369 134.2H261.049V119.16H328.409V132.28L282.489 187.96H329.209V203H259.129V189.88Z" fill="black"/>
<path d="M392.651 91.0453L412.739 87.0577L432.772 121.415L438.32 81.9797L458.251 78.0233L449.167 132.515L470.332 165.179L484.712 72.4445L508.252 67.7715L485.801 188.045L467.125 191.752L438.224 148.879L428.048 199.509L409.372 203.217L342.84 100.607L366.067 95.9963L414.933 176.176L421.703 137.967L392.651 91.0453ZM539.255 177.434L522.931 95.1984L543.961 91.0238L560.285 173.259L539.255 177.434ZM520.657 83.7419L516.513 62.8692L537.543 58.6946L541.686 79.5674L520.657 83.7419ZM570.718 157.812L605.232 94.1945L561.76 102.824L558.832 88.0718L624.902 74.9563L627.457 87.8252L593.257 151.381L639.083 142.284L642.011 157.036L573.273 170.681L570.718 157.812Z" fill="black"/>
<path d="M528.5 87C537.06 87 544 80.0604 544 71.5C544 62.9396 537.06 56 528.5 56C519.94 56 513 62.9396 513 71.5C513 80.0604 519.94 87 528.5 87Z" fill="#FF5613"/>
<path d="M2.56 285V262.28H12.096C13.12 262.28 14.0587 262.493 14.912 262.92C15.7653 263.347 16.512 263.912 17.152 264.616C17.792 265.32 18.2827 266.109 18.624 266.984C18.9653 267.859 19.136 268.755 19.136 269.672C19.136 270.931 18.848 272.136 18.272 273.288C17.7173 274.419 16.9173 275.336 15.872 276.04C14.848 276.744 13.6533 277.096 12.288 277.096H6.144V285H2.56ZM6.144 273.928H12.064C12.7467 273.928 13.344 273.747 13.856 273.384C14.368 273 14.7627 272.488 15.04 271.848C15.3387 271.208 15.488 270.483 15.488 269.672C15.488 268.84 15.3173 268.104 14.976 267.464C14.6347 266.824 14.1867 266.333 13.632 265.992C13.0987 265.629 12.512 265.448 11.872 265.448H6.144V273.928ZM22.0815 261.64H25.6015V280.168C25.6015 281.021 25.7295 281.565 25.9855 281.8C26.2415 282.035 26.5615 282.152 26.9455 282.152C27.3722 282.152 27.7668 282.109 28.1295 282.024C28.5135 281.939 28.8442 281.832 29.1215 281.704L29.6335 284.488C29.1215 284.701 28.5135 284.883 27.8095 285.032C27.1055 285.181 26.4762 285.256 25.9215 285.256C24.7268 285.256 23.7882 284.925 23.1055 284.264C22.4228 283.581 22.0815 282.643 22.0815 281.448V261.64ZM30.4585 280.104C30.4585 279.037 30.7572 278.109 31.3545 277.32C31.9732 276.509 32.8158 275.891 33.8825 275.464C34.9492 275.016 36.1865 274.792 37.5945 274.792C38.3412 274.792 39.0985 274.845 39.8665 274.952C40.6558 275.059 41.3492 275.229 41.9465 275.464V274.408C41.9465 273.235 41.5945 272.317 40.8905 271.656C40.1865 270.995 39.1732 270.664 37.8505 270.664C36.9118 270.664 36.0265 270.835 35.1945 271.176C34.3625 271.496 33.4772 271.955 32.5385 272.552L31.3545 270.184C32.4638 269.437 33.5732 268.883 34.6825 268.52C35.8132 268.157 36.9972 267.976 38.2345 267.976C40.4745 267.976 42.2345 268.573 43.5145 269.768C44.8158 270.941 45.4665 272.616 45.4665 274.792V281.032C45.4665 281.437 45.5305 281.725 45.6585 281.896C45.8078 282.067 46.0532 282.163 46.3945 282.184V285C46.0745 285.064 45.7865 285.107 45.5305 285.128C45.2745 285.149 45.0612 285.16 44.8905 285.16C44.1438 285.16 43.5785 284.979 43.1945 284.616C42.8105 284.253 42.5865 283.827 42.5225 283.336L42.4265 282.376C41.7012 283.315 40.7732 284.04 39.6425 284.552C38.5118 285.064 37.3705 285.32 36.2185 285.32C35.1092 285.32 34.1172 285.096 33.2425 284.648C32.3678 284.179 31.6852 283.549 31.1945 282.76C30.7038 281.971 30.4585 281.085 30.4585 280.104ZM41.1145 281.128C41.3705 280.851 41.5732 280.573 41.7225 280.296C41.8718 280.019 41.9465 279.773 41.9465 279.56V277.64C41.3492 277.405 40.7198 277.235 40.0585 277.128C39.3972 277 38.7465 276.936 38.1065 276.936C36.8265 276.936 35.7812 277.192 34.9705 277.704C34.1812 278.216 33.7865 278.92 33.7865 279.816C33.7865 280.307 33.9145 280.776 34.1705 281.224C34.4478 281.672 34.8318 282.035 35.3225 282.312C35.8345 282.589 36.4638 282.728 37.2105 282.728C37.9785 282.728 38.7145 282.579 39.4185 282.28C40.1225 281.981 40.6878 281.597 41.1145 281.128ZM49.7193 288.936C50.0393 288.979 50.3486 289.021 50.6473 289.064C50.9673 289.128 51.2233 289.16 51.4153 289.16C51.7779 289.16 52.0873 289.043 52.3433 288.808C52.6206 288.595 52.8979 288.189 53.1753 287.592C53.4526 286.995 53.7939 286.131 54.1993 285L47.3193 268.264H50.9993L56.1193 281.416L60.6633 268.264H64.0553L56.4713 288.872C56.2366 289.491 55.8953 290.056 55.4473 290.568C54.9993 291.101 54.4446 291.517 53.7833 291.816C53.1219 292.115 52.3433 292.264 51.4473 292.264C51.1913 292.264 50.9246 292.243 50.6473 292.2C50.3699 292.157 50.0606 292.093 49.7193 292.008V288.936ZM93.6635 268.264H97.0235L89.9835 285H86.9755L83.9675 277.448L80.9595 285H77.9515L70.8795 268.264H74.2395L79.6155 281.576L81.9835 275.4L79.1035 268.296H82.0795L83.9675 273.512L85.8235 268.296H88.7995L85.9515 275.4L88.3195 281.576L93.6635 268.264ZM99.362 285V268.264H102.882V285H99.362ZM99.362 265.512V261.64H102.882V265.512H99.362ZM116.424 284.136C116.125 284.285 115.752 284.445 115.304 284.616C114.856 284.787 114.344 284.936 113.768 285.064C113.213 285.192 112.637 285.256 112.04 285.256C111.315 285.256 110.643 285.128 110.024 284.872C109.405 284.616 108.904 284.211 108.52 283.656C108.157 283.08 107.976 282.344 107.976 281.448V270.984H105.768V268.264H107.976V262.76H111.496V268.264H115.144V270.984H111.496V280.328C111.539 280.904 111.72 281.331 112.04 281.608C112.381 281.885 112.797 282.024 113.288 282.024C113.779 282.024 114.248 281.939 114.696 281.768C115.144 281.597 115.475 281.459 115.688 281.352L116.424 284.136ZM133.87 285H130.35V275.624C130.35 274.109 130.073 272.979 129.518 272.232C128.963 271.485 128.185 271.112 127.182 271.112C126.563 271.112 125.923 271.283 125.262 271.624C124.601 271.965 124.014 272.435 123.502 273.032C122.99 273.608 122.617 274.28 122.382 275.048V285H118.862V261.64H122.382V271.624C123.022 270.493 123.897 269.608 125.006 268.968C126.115 268.307 127.31 267.976 128.59 267.976C129.635 267.976 130.499 268.157 131.182 268.52C131.865 268.883 132.398 269.384 132.782 270.024C133.187 270.643 133.465 271.368 133.614 272.2C133.785 273.011 133.87 273.875 133.87 274.792V285ZM145.702 278.504V268.264H149.222V277.8C149.222 279.293 149.489 280.424 150.022 281.192C150.577 281.939 151.377 282.312 152.422 282.312C153.083 282.312 153.723 282.173 154.342 281.896C154.982 281.619 155.558 281.213 156.07 280.68C156.603 280.125 157.03 279.464 157.35 278.696V268.264H160.87V281.032C160.87 281.437 160.945 281.725 161.094 281.896C161.243 282.067 161.489 282.163 161.83 282.184V285C161.467 285.064 161.169 285.107 160.934 285.128C160.699 285.149 160.475 285.16 160.262 285.16C159.622 285.16 159.089 284.989 158.662 284.648C158.235 284.285 157.99 283.827 157.926 283.272L157.862 281.608C157.115 282.824 156.145 283.752 154.95 284.392C153.755 285.011 152.443 285.32 151.014 285.32C149.265 285.32 147.942 284.744 147.046 283.592C146.15 282.44 145.702 280.744 145.702 278.504ZM171.314 285.32C169.906 285.32 168.573 285.096 167.314 284.648C166.055 284.179 164.978 283.485 164.082 282.568L165.394 280.2C166.354 281.053 167.314 281.672 168.274 282.056C169.255 282.44 170.226 282.632 171.186 282.632C172.167 282.632 172.967 282.451 173.586 282.088C174.205 281.704 174.514 281.149 174.514 280.424C174.514 279.891 174.354 279.496 174.034 279.24C173.714 278.984 173.245 278.76 172.626 278.568C172.029 278.376 171.303 278.163 170.45 277.928C169.255 277.565 168.253 277.192 167.442 276.808C166.631 276.403 166.023 275.912 165.618 275.336C165.213 274.76 165.01 274.024 165.01 273.128C165.01 272.04 165.287 271.112 165.842 270.344C166.397 269.576 167.165 268.989 168.146 268.584C169.149 268.179 170.301 267.976 171.602 267.976C172.818 267.976 173.938 268.168 174.962 268.552C176.007 268.915 176.925 269.491 177.714 270.28L176.21 272.616C175.463 271.933 174.695 271.432 173.906 271.112C173.138 270.792 172.306 270.632 171.41 270.632C170.898 270.632 170.407 270.696 169.938 270.824C169.469 270.931 169.074 271.144 168.754 271.464C168.455 271.763 168.306 272.189 168.306 272.744C168.306 273.192 168.434 273.555 168.69 273.832C168.946 274.109 169.33 274.344 169.842 274.536C170.354 274.728 170.983 274.941 171.73 275.176C173.031 275.56 174.141 275.944 175.058 276.328C175.975 276.691 176.679 277.171 177.17 277.768C177.682 278.344 177.938 279.144 177.938 280.168C177.938 281.789 177.33 283.059 176.114 283.976C174.919 284.872 173.319 285.32 171.314 285.32ZM181.305 288.104L182.073 284.808H180.921V280.904H184.089V284.808L182.969 288.104H181.305ZM212.082 281.832V285H196.498V262.28H211.794V265.448H200.082V271.912H210.226V274.888H200.082V281.832H212.082ZM217.315 268.264L221.283 273.992L221.571 274.536L221.859 273.992L225.795 268.264H229.603L223.587 276.648L229.667 285H225.859L221.859 279.304L221.571 278.792L221.283 279.304L217.283 285H213.475L219.555 276.68L213.539 268.264H217.315ZM241.554 285.32C240.21 285.32 239.026 285 238.002 284.36C236.978 283.72 236.167 282.888 235.57 281.864V291.816H232.049V268.264H235.154V271.272C235.794 270.269 236.626 269.469 237.65 268.872C238.674 268.275 239.815 267.976 241.074 267.976C242.226 267.976 243.282 268.211 244.242 268.68C245.202 269.128 246.034 269.757 246.738 270.568C247.442 271.379 247.986 272.307 248.37 273.352C248.775 274.376 248.978 275.464 248.978 276.616C248.978 278.216 248.658 279.677 248.017 281C247.399 282.323 246.524 283.379 245.394 284.168C244.284 284.936 243.004 285.32 241.554 285.32ZM240.402 282.312C241.148 282.312 241.82 282.152 242.418 281.832C243.036 281.512 243.559 281.085 243.986 280.552C244.434 280.019 244.775 279.411 245.01 278.728C245.244 278.045 245.362 277.341 245.362 276.616C245.362 275.848 245.234 275.123 244.978 274.44C244.722 273.757 244.348 273.16 243.858 272.648C243.388 272.136 242.834 271.731 242.194 271.432C241.575 271.133 240.892 270.984 240.146 270.984C239.698 270.984 239.228 271.069 238.738 271.24C238.247 271.411 237.788 271.645 237.362 271.944C236.935 272.243 236.562 272.595 236.242 273C235.922 273.405 235.698 273.832 235.57 274.28V278.664C235.868 279.347 236.263 279.965 236.754 280.52C237.244 281.053 237.81 281.491 238.45 281.832C239.09 282.152 239.74 282.312 240.402 282.312ZM252.175 261.64H255.695V280.168C255.695 281.021 255.823 281.565 256.079 281.8C256.335 282.035 256.655 282.152 257.039 282.152C257.466 282.152 257.861 282.109 258.223 282.024C258.607 281.939 258.938 281.832 259.215 281.704L259.727 284.488C259.215 284.701 258.607 284.883 257.903 285.032C257.199 285.181 256.57 285.256 256.015 285.256C254.821 285.256 253.882 284.925 253.199 284.264C252.517 283.581 252.175 282.643 252.175 281.448V261.64ZM269.288 285.32C267.966 285.32 266.782 285.096 265.736 284.648C264.691 284.179 263.784 283.539 263.016 282.728C262.27 281.917 261.694 281 261.288 279.976C260.883 278.931 260.68 277.821 260.68 276.648C260.68 275.475 260.883 274.365 261.288 273.32C261.694 272.275 262.27 271.357 263.016 270.568C263.784 269.757 264.691 269.128 265.736 268.68C266.803 268.211 267.987 267.976 269.288 267.976C270.59 267.976 271.763 268.211 272.808 268.68C273.875 269.128 274.782 269.757 275.528 270.568C276.296 271.357 276.883 272.275 277.288 273.32C277.694 274.365 277.896 275.475 277.896 276.648C277.896 277.821 277.694 278.931 277.288 279.976C276.883 281 276.296 281.917 275.528 282.728C274.782 283.539 273.875 284.179 272.808 284.648C271.763 285.096 270.59 285.32 269.288 285.32ZM264.296 276.68C264.296 277.747 264.52 278.707 264.968 279.56C265.416 280.413 266.014 281.085 266.76 281.576C267.507 282.067 268.35 282.312 269.288 282.312C270.206 282.312 271.038 282.067 271.784 281.576C272.552 281.064 273.16 280.381 273.608 279.528C274.056 278.653 274.28 277.693 274.28 276.648C274.28 275.581 274.056 274.621 273.608 273.768C273.16 272.915 272.552 272.243 271.784 271.752C271.038 271.24 270.206 270.984 269.288 270.984C268.35 270.984 267.507 271.24 266.76 271.752C266.014 272.264 265.416 272.947 264.968 273.8C264.52 274.632 264.296 275.592 264.296 276.68ZM290.426 271.304C289.061 271.325 287.845 271.635 286.778 272.232C285.733 272.829 284.986 273.672 284.538 274.76V285H281.018V268.264H284.282V272.008C284.858 270.856 285.616 269.939 286.554 269.256C287.493 268.552 288.485 268.168 289.53 268.104C289.744 268.104 289.914 268.104 290.042 268.104C290.192 268.104 290.32 268.115 290.426 268.136V271.304ZM300.259 285.32C298.957 285.32 297.773 285.096 296.707 284.648C295.661 284.179 294.755 283.549 293.987 282.76C293.219 281.949 292.621 281.032 292.195 280.008C291.789 278.963 291.587 277.853 291.587 276.68C291.587 275.101 291.949 273.661 292.674 272.36C293.4 271.037 294.413 269.981 295.715 269.192C297.016 268.381 298.541 267.976 300.291 267.976C302.04 267.976 303.544 268.381 304.803 269.192C306.083 269.981 307.075 271.027 307.779 272.328C308.483 273.629 308.835 275.027 308.835 276.52C308.835 276.776 308.824 277.021 308.803 277.256C308.781 277.469 308.76 277.651 308.739 277.8H295.331C295.395 278.781 295.661 279.645 296.131 280.392C296.621 281.117 297.24 281.693 297.987 282.12C298.733 282.525 299.533 282.728 300.387 282.728C301.325 282.728 302.211 282.493 303.043 282.024C303.896 281.555 304.472 280.936 304.771 280.168L307.779 281.032C307.416 281.843 306.861 282.579 306.115 283.24C305.389 283.88 304.525 284.392 303.523 284.776C302.52 285.139 301.432 285.32 300.259 285.32ZM295.235 275.464H305.347C305.283 274.504 305.005 273.661 304.515 272.936C304.045 272.189 303.437 271.613 302.691 271.208C301.965 270.781 301.155 270.568 300.259 270.568C299.384 270.568 298.573 270.781 297.827 271.208C297.101 271.613 296.504 272.189 296.035 272.936C295.565 273.661 295.299 274.504 295.235 275.464ZM339.57 268.264H342.93L335.89 285H332.882L329.874 277.448L326.866 285H323.858L316.786 268.264H320.146L325.522 281.576L327.89 275.4L325.01 268.296H327.986L329.874 273.512L331.73 268.296H334.706L331.858 275.4L334.226 281.576L339.57 268.264ZM345.268 285V268.264H348.788V285H345.268ZM345.268 265.512V261.64H348.788V265.512H345.268ZM362.33 284.136C362.032 284.285 361.658 284.445 361.21 284.616C360.762 284.787 360.25 284.936 359.674 285.064C359.12 285.192 358.544 285.256 357.946 285.256C357.221 285.256 356.549 285.128 355.93 284.872C355.312 284.616 354.81 284.211 354.426 283.656C354.064 283.08 353.882 282.344 353.882 281.448V270.984H351.674V268.264H353.882V262.76H357.402V268.264H361.05V270.984H357.402V280.328C357.445 280.904 357.626 281.331 357.946 281.608C358.288 281.885 358.704 282.024 359.194 282.024C359.685 282.024 360.154 281.939 360.602 281.768C361.05 281.597 361.381 281.459 361.594 281.352L362.33 284.136ZM379.776 285H376.256V275.624C376.256 274.109 375.979 272.979 375.424 272.232C374.87 271.485 374.091 271.112 373.088 271.112C372.47 271.112 371.83 271.283 371.168 271.624C370.507 271.965 369.92 272.435 369.408 273.032C368.896 273.608 368.523 274.28 368.288 275.048V285H364.768V261.64H368.288V271.624C368.928 270.493 369.803 269.608 370.912 268.968C372.022 268.307 373.216 267.976 374.496 267.976C375.542 267.976 376.406 268.157 377.088 268.52C377.771 268.883 378.304 269.384 378.688 270.024C379.094 270.643 379.371 271.368 379.52 272.2C379.691 273.011 379.776 273.875 379.776 274.792V285ZM391.608 278.504V268.264H395.128V277.8C395.128 279.293 395.395 280.424 395.928 281.192C396.483 281.939 397.283 282.312 398.328 282.312C398.99 282.312 399.63 282.173 400.248 281.896C400.888 281.619 401.464 281.213 401.976 280.68C402.51 280.125 402.936 279.464 403.256 278.696V268.264H406.776V281.032C406.776 281.437 406.851 281.725 407 281.896C407.15 282.067 407.395 282.163 407.736 282.184V285C407.374 285.064 407.075 285.107 406.84 285.128C406.606 285.149 406.382 285.16 406.168 285.16C405.528 285.16 404.995 284.989 404.568 284.648C404.142 284.285 403.896 283.827 403.832 283.272L403.768 281.608C403.022 282.824 402.051 283.752 400.856 284.392C399.662 285.011 398.35 285.32 396.92 285.32C395.171 285.32 393.848 284.744 392.952 283.592C392.056 282.44 391.608 280.744 391.608 278.504ZM417.22 285.32C415.812 285.32 414.479 285.096 413.22 284.648C411.962 284.179 410.884 283.485 409.988 282.568L411.3 280.2C412.26 281.053 413.22 281.672 414.18 282.056C415.162 282.44 416.132 282.632 417.092 282.632C418.074 282.632 418.874 282.451 419.492 282.088C420.111 281.704 420.42 281.149 420.42 280.424C420.42 279.891 420.26 279.496 419.94 279.24C419.62 278.984 419.151 278.76 418.532 278.568C417.935 278.376 417.21 278.163 416.356 277.928C415.162 277.565 414.159 277.192 413.348 276.808C412.538 276.403 411.93 275.912 411.524 275.336C411.119 274.76 410.916 274.024 410.916 273.128C410.916 272.04 411.194 271.112 411.748 270.344C412.303 269.576 413.071 268.989 414.052 268.584C415.055 268.179 416.207 267.976 417.508 267.976C418.724 267.976 419.844 268.168 420.868 268.552C421.914 268.915 422.831 269.491 423.62 270.28L422.116 272.616C421.37 271.933 420.602 271.432 419.812 271.112C419.044 270.792 418.212 270.632 417.316 270.632C416.804 270.632 416.314 270.696 415.844 270.824C415.375 270.931 414.98 271.144 414.66 271.464C414.362 271.763 414.212 272.189 414.212 272.744C414.212 273.192 414.34 273.555 414.596 273.832C414.852 274.109 415.236 274.344 415.748 274.536C416.26 274.728 416.89 274.941 417.636 275.176C418.938 275.56 420.047 275.944 420.964 276.328C421.882 276.691 422.586 277.171 423.076 277.768C423.588 278.344 423.844 279.144 423.844 280.168C423.844 281.789 423.236 283.059 422.02 283.976C420.826 284.872 419.226 285.32 417.22 285.32Z" fill="#808080"/>
</svg>
