<svg width="522" height="754" viewBox="0 0 522 754" fill="none" xmlns="http://www.w3.org/2000/svg">
<g clip-path="url(#clip0_1057_73352)">
<path d="M182.833 188.408C182.833 188.408 178.072 194.631 177.922 202.645C177.771 210.658 176.439 224.745 180.157 238.093C183.875 251.441 188.045 258.415 191.311 262.122C194.589 265.828 208.268 269.835 215.113 267.907C221.958 265.978 245.91 227.274 243.524 214.815C241.15 202.356 243.826 182.484 232.22 178.189C220.614 173.882 182.833 188.408 182.833 188.408Z" fill="white"/>
<path d="M-5.55566 684.466L241.173 595.221V557.51L221.24 550.639L223.023 532.546L110.06 493.818L53.839 495.088L-5.55566 495.85V684.466Z" fill="#A7CCE9"/>
<path d="M287.769 449.779C287.769 449.779 304.749 563.514 295.066 629.942C290.375 662.111 285.221 681.729 285.221 681.729" stroke="#031F43" stroke-width="2" stroke-miterlimit="10" stroke-linecap="round" stroke-linejoin="round"/>
<path d="M156.413 365.049C156.413 365.049 136.074 387.889 119.338 391.999C102.601 396.11 91.7832 397.391 91.7832 397.391L130.399 298.055C130.399 298.055 149.707 283.68 156.656 281.37C163.629 279.061 156.413 365.049 156.413 365.049Z" fill="#45D62F" stroke="#031F43" stroke-width="2" stroke-linecap="round" stroke-linejoin="round"/>
<path d="M258.095 279.661C258.095 279.661 262.056 284.234 271.646 287.351C281.236 290.469 295.633 294.418 303.556 306.069C311.478 317.708 320.454 345.362 320.454 359.299C320.454 373.236 323.373 429.78 323.165 439.133C322.956 448.486 323.165 475.516 321.288 484.454C319.412 493.391 313.157 509.406 309.822 513.771C306.486 518.135 300.648 525.825 299.606 530.409C298.564 534.982 294.602 549.127 288.765 555.154C282.927 561.181 268.322 568.456 268.322 568.456L246.42 585.51C246.42 585.51 248.296 569.715 243.084 557.648C237.872 545.593 232.034 539.554 232.034 539.554L241.833 535.19C241.833 535.19 242.458 523.966 248.921 515.226C255.384 506.496 263.724 500.261 268.113 491.105C272.492 481.96 276.244 447.654 276.244 447.654C276.244 447.654 250.172 447.654 238.497 445.576C226.822 443.497 201.167 443.082 189.909 439.133C178.651 435.184 172.176 432.066 172.176 432.066C172.176 432.066 171.968 420.843 166.964 412.933C161.961 405.024 155.498 389.02 153.83 380.706C152.162 372.393 148.409 331.437 146.741 318.123C145.073 304.821 145.073 286.312 152.579 282.155C160.084 277.998 175.732 275.92 183.863 274.465C191.982 273.01 258.095 279.661 258.095 279.661Z" fill="#45D62F" stroke="#031F43" stroke-width="2" stroke-linecap="round" stroke-linejoin="round"/>
<path d="M196.627 167.162C196.627 167.162 203.217 146.736 232.451 149.576C251.493 151.424 269.283 166.076 266.342 195.971C264.025 219.538 254.4 215.762 254.4 215.762L196.627 167.162Z" fill="#031F43"/>
<path d="M190.071 164.887C190.071 164.887 198.862 150.696 219.815 153.594C246.281 157.255 256.195 173.247 256.925 193.407C257.481 208.626 190.071 164.887 190.071 164.887Z" fill="#E72A8B"/>
<path d="M231.374 213.868C229.81 204.227 235.034 196.837 223.788 191.167C212.159 185.313 207.862 191.121 192.863 196.848C186.191 199.4 178.825 197.287 178.825 197.287C178.825 197.287 169.026 186.756 180.481 170.822C201.341 141.805 268.924 170.487 262.496 213.857C258.141 243.231 265.542 254.94 282.186 257.561C286.553 258.242 272.99 279.5 258.234 281.982C233.61 286.116 232.127 273.53 232.127 273.53L236.517 226.165C236.517 226.165 232.833 222.898 231.374 213.868Z" fill="#031F43"/>
<path d="M236.447 227.308C236.447 227.308 239.586 220.427 245.806 221.431C252.025 222.436 253.658 231.973 249.894 237.435C247.207 241.338 242.296 243.843 239.713 244.952C238.648 245.414 237.895 246.361 237.698 247.492L233.609 271.036C232.289 278.634 223.961 285.631 216.236 285.966C203.159 286.52 196.383 283.437 196.383 283.437C196.383 283.437 194.507 260.551 196.638 261.06C211.035 264.5 218.842 258.069 218.819 257.584" fill="white"/>
<path d="M236.447 227.308C236.447 227.308 239.586 220.427 245.806 221.431C252.025 222.436 253.658 231.973 249.894 237.435C247.207 241.338 242.296 243.843 239.713 244.952C238.648 245.414 237.895 246.361 237.698 247.492L233.609 271.036C232.289 278.634 223.961 285.631 216.236 285.966C203.159 286.52 196.383 283.437 196.383 283.437C196.383 283.437 194.507 260.551 196.638 261.06C211.035 264.5 218.842 258.069 218.819 257.584" stroke="#031F43" stroke-width="2" stroke-miterlimit="10" stroke-linecap="round" stroke-linejoin="round"/>
<path d="M207.699 240.668C207.699 240.668 200.611 240.957 198.248 241.049C196.337 241.13 190.604 241.361 190.604 241.361C190.604 241.361 192.028 249.028 199.707 248.797C207.259 248.566 207.699 240.668 207.699 240.668Z" stroke="#031F43" stroke-width="2" stroke-miterlimit="10" stroke-linecap="round" stroke-linejoin="round"/>
<path d="M184.35 212.021C184.362 212.217 183.423 216.339 187.778 216.408C191.612 216.466 191.415 212.009 191.415 212.009" fill="#45D62F"/>
<path d="M184.35 212.021C184.362 212.217 183.423 216.339 187.778 216.408C191.612 216.466 191.415 212.009 191.415 212.009" stroke="#031F43" stroke-width="2" stroke-linecap="round" stroke-linejoin="round"/>
<path d="M211.023 212.182C211.208 212.24 210.085 216.743 214.44 216.812C218.274 216.87 217.926 213.025 217.926 213.025" fill="#45D62F"/>
<path d="M211.023 212.182C211.208 212.24 210.085 216.743 214.44 216.812C218.274 216.87 217.926 213.025 217.926 213.025" stroke="#031F43" stroke-width="2" stroke-linecap="round" stroke-linejoin="round"/>
<path d="M206.865 215.462C206.865 215.462 211.568 207.159 222.409 215.254" stroke="#031F43" stroke-width="2" stroke-miterlimit="10" stroke-linecap="round" stroke-linejoin="round"/>
<path d="M196.638 261.083C190.025 259.166 185.287 256.221 180.863 242.111C176.438 227.99 177.064 193.8 179.404 192.345" stroke="#031F43" stroke-width="2" stroke-miterlimit="10" stroke-linecap="round" stroke-linejoin="round"/>
<path d="M185.438 253.473C185.438 253.473 185.033 259.651 178.396 264.604C174.006 267.884 165.505 267.976 165.505 267.976C165.505 267.976 168.69 275.701 179.809 280.204C186.956 283.091 196.198 280.804 196.198 280.804L195.781 261.002L185.438 253.473Z" fill="#031F43"/>
<path d="M180.897 214.03C180.897 214.03 184.859 210.15 189.665 211.305C192.41 211.963 196.557 214.619 195.016 221.362C193.928 226.142 191.704 231.731 191.704 231.731C191.704 231.731 197.843 234.121 201.132 232.401" stroke="#031F43" stroke-width="2" stroke-miterlimit="10" stroke-linecap="round" stroke-linejoin="round"/>
<path d="M196.326 269.662L210.445 285.446L181.883 307.939L185.161 278.172L196.326 269.662Z" fill="#45D62F" stroke="#031F43" stroke-width="2" stroke-linecap="round" stroke-linejoin="round"/>
<path d="M210.445 285.446L230.02 313.909L262.763 280.585L243.791 261.741L210.445 285.446Z" fill="#45D62F" stroke="#031F43" stroke-width="2" stroke-linecap="round" stroke-linejoin="round"/>
<path d="M209.148 287.755C209.148 287.755 207.063 351.632 210.538 376.284C214.024 400.936 217.151 415.173 218.553 424.538C219.942 433.914 220.093 443.336 220.093 443.336" stroke="#031F43" stroke-width="2" stroke-miterlimit="10" stroke-linecap="round" stroke-linejoin="round"/>
<path d="M241.821 535.19C241.821 535.19 258.442 535.779 265.09 546.956C271.75 558.133 268.299 568.456 268.299 568.456" stroke="#031F43" stroke-width="2" stroke-miterlimit="10" stroke-linecap="round" stroke-linejoin="round"/>
<path d="M276.233 447.654C276.233 447.654 279.731 430.646 278.445 414.735C277.16 398.823 271.403 358.086 271.403 349.103" stroke="#031F43" stroke-width="2" stroke-miterlimit="10" stroke-linecap="round" stroke-linejoin="round"/>
<path d="M185.578 445.449L175.084 454.294L183.018 471.186C183.018 471.186 201.573 466.626 214.487 469.039C227.402 471.452 248.91 480.435 248.91 480.435L263.701 468.369L256.705 452.689C256.705 452.689 234.386 455.506 219.862 452.55C205.337 449.606 185.439 445.449 185.578 445.449Z" stroke="#031F43" stroke-width="2" stroke-miterlimit="10" stroke-linecap="round" stroke-linejoin="round"/>
<path d="M252.187 470.332C255.213 470.332 257.666 467.887 257.666 464.87C257.666 461.854 255.213 459.409 252.187 459.409C249.162 459.409 246.709 461.854 246.709 464.87C246.709 467.887 249.162 470.332 252.187 470.332Z" stroke="#031F43" stroke-width="2" stroke-miterlimit="10" stroke-linecap="round" stroke-linejoin="round"/>
<path d="M186.261 462.954C189.286 462.954 191.739 460.508 191.739 457.492C191.739 454.476 189.286 452.031 186.261 452.031C183.235 452.031 180.782 454.476 180.782 457.492C180.782 460.508 183.235 462.954 186.261 462.954Z" stroke="#031F43" stroke-width="2" stroke-miterlimit="10" stroke-linecap="round" stroke-linejoin="round"/>
<path d="M-5.55566 297.339L25.0682 247.769L93.8562 253.473L150.749 298.321L-5.55566 569.911V297.339Z" fill="#A7CCE9"/>
<path d="M7.20801 276.232L78.741 282.964L135.31 326.46" stroke="#031F43" stroke-width="2" stroke-miterlimit="10" stroke-linecap="round" stroke-linejoin="round"/>
<path d="M93.8559 253.473C93.8559 254.79 10.5088 408.222 10.5088 408.222" stroke="#031F43" stroke-width="2" stroke-miterlimit="10" stroke-linecap="round" stroke-linejoin="round"/>
<path d="M114.358 311.819L13.7295 493.529" stroke="#031F43" stroke-width="2" stroke-miterlimit="10" stroke-linecap="round" stroke-linejoin="round"/>
<path d="M44.9316 502.836L81.7869 516.888" stroke="#031F43" stroke-width="2" stroke-miterlimit="10" stroke-linecap="round" stroke-linejoin="round"/>
<path d="M28.1374 532.661L98.628 513.205C98.628 513.205 107.489 524.382 123.078 532.465C136.792 539.566 181.743 542.28 181.743 542.28L32.5619 590.187L14.4238 582.682" stroke="#031F43" stroke-width="2" stroke-miterlimit="10" stroke-linecap="round" stroke-linejoin="round"/>
<path d="M167.961 547.337L182.809 552.337L182.589 559.08L36.0947 603.05L17.7598 595.868" stroke="#031F43" stroke-width="2" stroke-miterlimit="10" stroke-linecap="round" stroke-linejoin="round"/>
<path d="M182.809 552.337L36.5346 596.953L16.6592 589.552" stroke="#031F43" stroke-width="2" stroke-miterlimit="10" stroke-linecap="round" stroke-linejoin="round"/>
<path d="M18.0488 613.569L37.7274 624.781L39.7775 666.557" stroke="#031F43" stroke-width="2" stroke-miterlimit="10" stroke-linecap="round" stroke-linejoin="round"/>
<path d="M17.0303 630.635L241.173 557.51" stroke="#031F43" stroke-width="2" stroke-miterlimit="10" stroke-linecap="round" stroke-linejoin="round"/>
<path d="M220.22 602.103L219.699 564.9L184.431 553.942" stroke="#031F43" stroke-width="2" stroke-miterlimit="10" stroke-linecap="round" stroke-linejoin="round"/>
<path d="M232.023 539.554C232.023 539.554 231.236 529.682 229.394 528.816C226.95 527.673 223.661 522.812 222.363 521.519C221.078 520.237 216.908 521.034 216.19 523.378C215.182 526.668 216.19 529.809 216.19 529.809" stroke="#031F43" stroke-width="2" stroke-miterlimit="10" stroke-linecap="round" stroke-linejoin="round"/>
<path d="M246.582 579.391C246.582 579.391 241.902 582.312 241.902 582.046" stroke="#031F43" stroke-width="2" stroke-miterlimit="10" stroke-linecap="round" stroke-linejoin="round"/>
<path d="M53.8389 495.088C54.0242 493.368 221.24 550.628 221.24 550.628" stroke="#031F43" stroke-width="2" stroke-miterlimit="10" stroke-linecap="round" stroke-linejoin="round"/>
<path d="M229.409 579.211C229.529 577.366 228.54 575.799 227.2 575.712C225.859 575.625 224.675 577.051 224.554 578.896C224.434 580.741 225.423 582.308 226.763 582.395C228.104 582.482 229.288 581.057 229.409 579.211Z" stroke="#031F43" stroke-width="2" stroke-miterlimit="10" stroke-linecap="round" stroke-linejoin="round"/>
<path d="M216.917 583.729C217.198 581.901 216.35 580.254 215.022 580.051C213.694 579.848 212.39 581.166 212.108 582.994C211.827 584.822 212.676 586.468 214.004 586.671C215.332 586.874 216.636 585.557 216.917 583.729Z" stroke="#031F43" stroke-width="2" stroke-miterlimit="10" stroke-linecap="round" stroke-linejoin="round"/>
<path d="M49.2228 639.028C49.5039 637.2 48.6552 635.553 47.3273 635.351C45.9995 635.148 44.6952 636.465 44.4141 638.293C44.1331 640.121 44.9817 641.768 46.3096 641.971C47.6375 642.174 48.9418 640.856 49.2228 639.028Z" stroke="#031F43" stroke-width="2" stroke-miterlimit="10" stroke-linecap="round" stroke-linejoin="round"/>
<path d="M25.507 646.656C25.7881 644.827 24.9395 643.181 23.6116 642.978C22.2837 642.775 20.9794 644.093 20.6983 645.921C20.4173 647.749 21.266 649.395 22.5938 649.598C23.9217 649.801 25.226 648.484 25.507 646.656Z" stroke="#031F43" stroke-width="2" stroke-miterlimit="10" stroke-linecap="round" stroke-linejoin="round"/>
<path d="M223.023 532.546L182.172 536.795" stroke="#031F43" stroke-width="2" stroke-miterlimit="10" stroke-linecap="round" stroke-linejoin="round"/>
<path d="M165.482 530.814C165.609 530.421 195.434 528.608 195.434 528.608L151.293 513.032C151.293 513.032 114.971 514.591 114.832 514.198" stroke="#031F43" stroke-width="2" stroke-miterlimit="10" stroke-linecap="round" stroke-linejoin="round"/>
<path d="M197.287 610.786L237.848 627.968C241.01 629.319 243.049 632.425 243.049 635.843V642.274L132.958 682.595" stroke="#031F43" stroke-width="2" stroke-miterlimit="10" stroke-linecap="round" stroke-linejoin="round"/>
<path d="M241.532 633.649L111.322 682.595" stroke="#031F43" stroke-width="2" stroke-miterlimit="10" stroke-linecap="round" stroke-linejoin="round"/>
<path d="M172.165 432.066C172.165 432.066 166.026 455.98 157.977 476.995C149.927 498.01 148.027 506.034 148.027 506.034" stroke="#031F43" stroke-width="2" stroke-miterlimit="10" stroke-linecap="round" stroke-linejoin="round"/>
<path d="M186.538 208.418L41.3643 168.882" stroke="#45D62F" stroke-width="2" stroke-miterlimit="10" stroke-linecap="round" stroke-linejoin="round"/>
<path d="M217.174 209.642L72.3594 168.824" stroke="#45D62F" stroke-width="2" stroke-miterlimit="10" stroke-linecap="round" stroke-linejoin="round"/>
<path d="M175.779 216.766L85.042 215.97" stroke="#45D62F" stroke-width="2" stroke-miterlimit="10" stroke-linecap="round" stroke-linejoin="round"/>
<path d="M218.53 219.11L128.21 227.793" stroke="#45D62F" stroke-width="2" stroke-miterlimit="10" stroke-linecap="round" stroke-linejoin="round"/>
<path d="M449.286 102.408C450.821 102.408 452.065 101.167 452.065 99.6366C452.065 98.1061 450.821 96.8654 449.286 96.8654C447.75 96.8654 446.506 98.1061 446.506 99.6366C446.506 101.167 447.75 102.408 449.286 102.408Z" fill="#031F43"/>
<path d="M448.405 99.6827L440.112 111.495L446.332 113.654L449.425 100.445L448.405 99.6827Z" fill="#031F43"/>
<path d="M377.719 121.148C377.719 121.148 316.98 118.908 310.471 124.035C303.962 129.173 520.588 230.184 520.588 230.184C520.588 230.184 526.981 219.953 508.125 196.756C489.269 173.559 474.246 160.961 474.246 160.961C474.246 160.961 437.993 126.61 424.187 122.788C410.369 118.966 377.719 121.148 377.719 121.148Z" fill="#347CE1"/>
<path d="M378.98 121.344C378.98 121.344 403.35 95.8377 441.201 107.962C479.053 120.086 475.81 162.139 475.81 162.139C475.81 162.139 464.412 151.031 436.719 137.071C403.605 120.386 378.98 121.344 378.98 121.344Z" fill="#031F43"/>
<path d="M521.513 230.911C515.965 240.853 462.119 229.168 402.585 201.098C343.028 173.016 302.084 138.457 307.366 126.367C311.918 115.941 368.116 124.485 427.256 153.387C490.38 184.239 528.162 219.018 521.513 230.911Z" fill="#F3B63F"/>
<path d="M364.48 162.993C364.48 162.993 384.042 161.238 415.303 178.004C444.201 193.5 453.85 208.995 453.85 208.995C453.85 208.995 440.032 212.009 430.407 211.778C405.597 211.178 385.629 204.146 369.738 177.311C364.364 168.236 364.48 162.993 364.48 162.993Z" fill="#031F43"/>
<path d="M370.826 188.754L289.379 250.633" stroke="#45D62F" stroke-width="2" stroke-miterlimit="10" stroke-linecap="round" stroke-linejoin="round"/>
<path d="M302.826 287.502L374.359 197.899" stroke="#45D62F" stroke-width="2" stroke-miterlimit="10" stroke-linecap="round" stroke-linejoin="round"/>
<path d="M408.087 215.866L374.822 512.986" stroke="#45D62F" stroke-width="2" stroke-miterlimit="10" stroke-linecap="round" stroke-linejoin="round"/>
<path d="M422.16 214.861L452.402 396.537" stroke="#45D62F" stroke-width="2" stroke-miterlimit="10" stroke-linecap="round" stroke-linejoin="round"/>
</g>
<defs>
<clipPath id="clip0_1057_73352">
<rect width="527" height="754" fill="white" transform="translate(-5)"/>
</clipPath>
</defs>
</svg>
